<svg width="64" height="64" viewBox="0 0 64 64" fill="none" xmlns="http://www.w3.org/2000/svg">
<g clip-path="url(#clip0_324_11327)">
<path d="M63.4387 24.4749C63.4158 24.4749 63.3934 24.4671 63.3746 24.4525L32.3224 0.36174C32.2279 0.288769 32.1156 0.249772 32.0006 0.24999C31.8856 0.250209 31.7734 0.289632 31.6792 0.362962L0.850618 24.4522C0.826234 24.4713 0.796056 24.4788 0.76672 24.473C0.737384 24.4673 0.711293 24.4488 0.69419 24.4216C0.677087 24.3945 0.670371 24.3609 0.675519 24.3282C0.680668 24.2955 0.697259 24.2664 0.721644 24.2474L31.5502 0.15812C31.6822 0.0554733 31.8393 0.000295891 32.0002 1.1867e-06C32.1612 -0.000293517 32.3184 0.0543081 32.4507 0.156471L63.5029 24.2471C63.5225 24.2624 63.5373 24.2842 63.545 24.3094C63.5527 24.3346 63.553 24.3619 63.5459 24.3873C63.5387 24.4127 63.5244 24.4349 63.5051 24.4507C63.4859 24.4664 63.4626 24.4749 63.4387 24.4749L63.4387 24.4749Z" fill="#3F3D56"/>
<path d="M2.6123 23.3293L32.0312 -0.958984L61.6733 25.0575L33.547 43.6318L18.2768 39.7544L2.6123 23.3293Z" fill="#E6E6E6"/>
<path d="M32.4442 38.8566C32.3337 38.8568 32.2243 38.8329 32.122 38.7863L13.9785 30.3999V4.14899C13.9788 3.91686 14.0616 3.69432 14.209 3.53018C14.3563 3.36604 14.5561 3.27371 14.7645 3.27344H49.5715C49.7799 3.27371 49.9796 3.36604 50.127 3.53018C50.2743 3.69432 50.3572 3.91686 50.3575 4.14899V30.4182L50.3234 30.4345L32.7761 38.7822C32.671 38.8314 32.5582 38.8567 32.4442 38.8566Z" fill="white"/>
<path opacity="0.8" d="M32.2725 39C32.1563 39.0001 32.0412 38.9745 31.9336 38.9245L14 30.4533V3.94576C14.0002 3.69502 14.0879 3.45462 14.2436 3.27732C14.3993 3.10002 14.6105 3.00028 14.8308 3H49.1692C49.3895 3.00028 49.6007 3.10002 49.7564 3.27732C49.9121 3.45462 49.9998 3.69502 50 3.94576V30.4713L32.6217 38.92C32.5111 38.9729 32.3924 39.0001 32.2725 39ZM14.2215 30.2848L32.0181 38.6913C32.1841 38.768 32.37 38.7667 32.5351 38.6878L49.7785 30.3048V3.94576C49.7783 3.76188 49.714 3.5856 49.5998 3.45558C49.4856 3.32556 49.3308 3.25242 49.1692 3.2522H14.8308C14.6693 3.25242 14.5144 3.32556 14.4002 3.45558C14.286 3.5856 14.2217 3.76188 14.2215 3.94576L14.2215 30.2848Z" fill="#3F3D56"/>
<path d="M63.214 24.2246H63.1916L50.3018 30.356L32.6658 38.7451C32.5969 38.7774 32.523 38.7942 32.4482 38.7946C32.3735 38.7951 32.2994 38.7791 32.2302 38.7476L14.0351 30.3385L0.828618 24.2346L0.808443 24.2246H0.785965C0.577585 24.2249 0.377805 24.3172 0.230458 24.4813C0.0831116 24.6455 0.000231214 24.868 0 25.1002V63.1243C0.000231511 63.3564 0.0831116 63.579 0.230458 63.7431C0.377805 63.9073 0.577585 63.9996 0.785965 63.9999H63.214C63.4224 63.9996 63.6222 63.9073 63.7695 63.7431C63.9169 63.579 63.9998 63.3564 64 63.1243V25.1002C63.9998 24.868 63.9169 24.6455 63.7695 24.4813C63.6222 24.3172 63.4224 24.2249 63.214 24.2246ZM63.7754 63.1243C63.7754 63.2902 63.7162 63.4492 63.611 63.5665C63.5057 63.6837 63.3629 63.7496 63.214 63.7497H0.785965C0.63709 63.7496 0.49433 63.6837 0.389059 63.5665C0.283788 63.4492 0.224621 63.2902 0.224561 63.1243V25.1002C0.224765 24.9384 0.281079 24.7831 0.38173 24.6665C0.48238 24.55 0.619576 24.4813 0.764638 24.4748L14.0351 30.6087L32.1437 38.979C32.3398 39.0678 32.5594 39.0665 32.7546 38.9752L50.3018 30.6274L63.2365 24.4748C63.3813 24.4817 63.5182 24.5506 63.6185 24.6671C63.7189 24.7836 63.7751 24.9387 63.7754 25.1002V63.1243Z" fill="#0F74BC"/>
<path d="M29.9872 30.1904C29.4682 30.1915 28.9631 30.0002 28.5478 29.6453L28.5221 29.6233L23.1017 24.8916C22.8507 24.6723 22.64 24.3988 22.4817 24.0867C22.3234 23.7746 22.2205 23.4299 22.179 23.0725C22.1375 22.715 22.1582 22.3518 22.2398 22.0034C22.3215 21.6551 22.4625 21.3285 22.6548 21.0423C22.8471 20.7561 23.087 20.5159 23.3608 20.3354C23.6346 20.1548 23.9368 20.0376 24.2503 19.9903C24.5639 19.943 24.8825 19.9665 25.188 20.0596C25.4935 20.1527 25.78 20.3134 26.031 20.5327L29.5419 23.6021L37.8388 11.2654C38.0312 10.9793 38.2712 10.7392 38.545 10.5588C38.8188 10.3784 39.1211 10.2612 39.4346 10.214C39.7482 10.1669 40.0668 10.1905 40.3723 10.2837C40.6778 10.377 40.9642 10.5379 41.2151 10.7573L41.1635 10.8371L41.2165 10.7584C41.7227 11.202 42.0539 11.8564 42.1375 12.5781C42.221 13.2998 42.0501 14.0298 41.6621 14.608L31.9031 29.1189C31.6773 29.4533 31.3871 29.7239 31.0548 29.9097C30.7226 30.0955 30.3572 30.1916 29.9872 30.1904V30.1904Z" fill="#1A1A1A"/>
</g>
<defs>
<clipPath id="clip0_324_11327">
<rect width="64" height="64" fill="white"/>
</clipPath>
</defs>
</svg>
