<svg width="24" height="25" viewBox="0 0 24 25" fill="none" xmlns="http://www.w3.org/2000/svg">
<g clip-path="url(#clip0_1020_5304)">
<path d="M18.7689 21.3193H5.23056C3.50547 21.3199 2.10699 22.7184 2.10645 24.4435H21.8931C21.8931 22.7178 20.4946 21.3193 18.7689 21.3193Z" fill="#FFCB0D"/>
<path d="M12.0002 6.74023C8.35457 6.74023 5.75195 9.34339 5.75195 13.167V20.2307H18.2484V13.167C18.2484 9.34339 15.6474 6.74023 12.0002 6.74023ZM16.1678 14.5742C15.8674 14.5742 15.6235 14.3303 15.6235 14.0298C15.6235 12.0767 14.6643 10.2841 13.3916 9.86054C13.1058 9.76528 12.9512 9.45716 13.0465 9.17137C13.1417 8.88558 13.4498 8.73098 13.7356 8.82624C15.4602 9.40164 16.7122 11.59 16.7122 14.0298C16.7122 14.3303 16.4683 14.5742 16.1678 14.5742Z" fill="#FFCB0D"/>
<path d="M3.66848 13.5331H0.544366C0.243876 13.5331 0 13.2892 0 12.9887C0 12.6882 0.243876 12.4443 0.544366 12.4443H3.66848C3.96897 12.4443 4.21285 12.6882 4.21285 12.9887C4.21285 13.2892 3.96897 13.5331 3.66848 13.5331Z" fill="#FFCB0D"/>
<path d="M5.70744 7.50603C5.56318 7.50603 5.42437 7.44888 5.32257 7.34654L3.23983 5.26325C3.03079 5.04713 3.03678 4.70255 3.25344 4.49351C3.46465 4.28992 3.79889 4.28992 4.00956 4.49351L6.09231 6.5768C6.30461 6.78965 6.30461 7.13423 6.09231 7.34654C5.98997 7.44888 5.8517 7.50603 5.70744 7.50603Z" fill="#FFCB0D"/>
<path d="M12.0004 5.20113C11.6999 5.20113 11.4561 4.95725 11.4561 4.65676V1.53265C11.4561 1.23216 11.6999 0.988281 12.0004 0.988281C12.3009 0.988281 12.5448 1.23216 12.5448 1.53265V4.65676C12.5448 4.95725 12.3009 5.20113 12.0004 5.20113Z" fill="#FFCB0D"/>
<path d="M18.4096 7.38848C18.1091 7.38848 17.8652 7.1446 17.8652 6.84411C17.8652 6.69985 17.9224 6.56158 18.0247 6.45924L20.1075 4.3765C20.3198 4.16365 20.6649 4.16365 20.8778 4.37596C21.0906 4.58826 21.0906 4.93339 20.8778 5.14623L18.7945 7.22898C18.6927 7.33132 18.5539 7.38848 18.4096 7.38848Z" fill="#FFCB0D"/>
<path d="M23.4556 13.5331H20.3315C20.031 13.5331 19.7871 13.2892 19.7871 12.9887C19.7871 12.6882 20.031 12.4443 20.3315 12.4443H23.4556C23.7561 12.4443 24 12.6882 24 12.9887C24 13.2892 23.7561 13.5331 23.4556 13.5331Z" fill="#FFCB0D"/>
</g>
<defs>
<clipPath id="clip0_1020_5304">
<rect width="24" height="24" fill="white" transform="translate(0 0.988281)"/>
</clipPath>
</defs>
</svg>
