<svg width="24" height="25" viewBox="0 0 24 25" fill="none" xmlns="http://www.w3.org/2000/svg">
<g clip-path="url(#clip0_1020_4221)">
<path d="M8.4094 21.2403C8.84222 21.6203 9.28901 22.0124 9.7486 22.4189C9.75173 22.4216 9.75493 22.4245 9.75813 22.4272L11.287 23.7479C11.4919 23.9249 11.7461 24.0133 12.0004 24.0133C12.2546 24.0133 12.5089 23.9248 12.7138 23.7479L14.2424 22.4272C14.2456 22.4245 14.2487 22.4217 14.2518 22.4189C17.2785 19.7423 19.5477 17.6931 21.1894 15.6946C23.1069 13.3604 24.0001 11.2499 24.0001 9.05276C24.0001 5.07764 20.8863 1.96387 16.9113 1.96387C15.1248 1.96387 13.3595 2.6366 12.0004 3.80274C10.6409 2.63652 8.87561 1.96387 7.08897 1.96387C3.11384 1.96379 0 5.07764 0 9.05269C0 13.8577 3.34546 16.7947 8.4094 21.2403ZM7.63541 10.8064H10.5451V7.89658H13.4549V10.8064H16.3646V13.7161H13.4549V16.6258H10.5451V13.7161H7.63541V10.8064Z" fill="#FFCB0D"/>
</g>
<defs>
<clipPath id="clip0_1020_4221">
<rect width="24" height="24" fill="white" transform="translate(0 0.988281)"/>
</clipPath>
</defs>
</svg>
