<svg width="24" height="25" viewBox="0 0 24 25" fill="none" xmlns="http://www.w3.org/2000/svg">
<g clip-path="url(#clip0_1020_8661)">
<path d="M3.9505 5.70062L6.59205 5.93177C6.97891 5.96561 7.31992 5.67944 7.35376 5.29262C7.38761 4.90577 7.10144 4.56475 6.71462 4.53091L5.73264 4.44498C7.53906 3.11392 9.71416 2.39453 11.9999 2.39453C13.8975 2.39453 15.761 2.9042 17.389 3.86838C17.7231 4.06628 18.1543 3.95584 18.3522 3.62172C18.5501 3.28759 18.4397 2.85634 18.1056 2.65844C16.2609 1.56583 14.1495 0.988281 11.9999 0.988281C9.39484 0.988281 6.91656 1.81277 4.86297 3.33827L4.94331 2.41994C4.97716 2.03308 4.69098 1.69206 4.30412 1.65822C3.91726 1.62437 3.57625 1.91055 3.54241 2.29736L3.31131 4.93891C3.27747 5.32577 3.56364 5.66678 3.9505 5.70062Z" fill="#FFCB0D"/>
<path d="M4.3043 17.6348C3.91744 17.601 3.57642 17.8872 3.54258 18.274L3.45666 19.2559C2.12564 17.4495 1.40625 15.2745 1.40625 12.9887C1.40625 11.0911 1.91588 9.22754 2.88005 7.59961C3.07795 7.26549 2.96752 6.83419 2.63339 6.63633C2.29927 6.43847 1.86797 6.54887 1.67011 6.88299C0.577547 8.72776 0 10.8391 0 12.9887C0 15.5938 0.824484 18.0721 2.34998 20.1256L1.43161 20.0453C1.04475 20.0114 0.703734 20.2976 0.669891 20.6844C0.636047 21.0713 0.922219 21.4123 1.30908 21.4462L3.95067 21.6773C4.33753 21.7111 4.67855 21.4249 4.71239 21.0381L4.94348 18.3965C4.97728 18.0097 4.69111 17.6687 4.3043 17.6348Z" fill="#FFCB0D"/>
<path d="M20.0489 20.2758L17.4073 20.0447C17.0205 20.0109 16.6795 20.297 16.6456 20.6839C16.6118 21.0708 16.8979 21.4118 17.2848 21.4456L18.2667 21.5315C16.4603 22.8626 14.2852 23.5819 11.9995 23.5819C10.1018 23.5819 8.2383 23.0722 6.61038 22.1081C6.27625 21.9101 5.845 22.0206 5.6471 22.3547C5.44919 22.6888 5.55963 23.1201 5.89375 23.318C7.73847 24.4106 9.84982 24.9881 11.9995 24.9881C14.6045 24.9881 17.0828 24.1637 19.1364 22.6382L19.0561 23.5565C19.0222 23.9434 19.3084 24.2844 19.6952 24.3183C20.0821 24.3521 20.4231 24.0659 20.4569 23.6791L20.688 21.0376C20.7219 20.6507 20.4357 20.3096 20.0489 20.2758Z" fill="#FFCB0D"/>
<path d="M21.6499 5.85125L22.5683 5.93159C22.9551 5.96544 23.2961 5.67926 23.33 5.29245C23.3638 4.90559 23.0776 4.56458 22.6908 4.53073L20.0492 4.29959C19.6624 4.26575 19.3214 4.55192 19.2875 4.93878L19.0564 7.58037C19.0226 7.96723 19.3088 8.30825 19.6956 8.34209C20.0825 8.37594 20.4235 8.08976 20.4573 7.70295L20.5433 6.72101C21.8743 8.52739 22.5937 10.7024 22.5937 12.9881C22.5937 14.8857 22.084 16.7492 21.1198 18.3772C20.9219 18.7113 21.0324 19.1426 21.3665 19.3405C21.7006 19.5383 22.1319 19.4279 22.3298 19.0938C23.4224 17.249 23.9999 15.1377 23.9999 12.9881C23.9999 10.3831 23.1754 7.90484 21.6499 5.85125Z" fill="#FFCB0D"/>
<path d="M12 5.72266C7.99369 5.72266 4.73438 8.98202 4.73438 12.9883C4.73438 16.9945 7.99369 20.2539 12 20.2539C16.0063 20.2539 19.2656 16.9945 19.2656 12.9883C19.2656 8.98202 16.0063 5.72266 12 5.72266ZM14.0588 14.6077C13.9343 15.348 13.3622 16.0987 12.4711 16.3013V16.7383C12.4711 16.9972 12.2612 17.207 12.0024 17.207C11.7435 17.207 11.5336 16.9972 11.5336 16.7383V16.3435C11.0835 16.3122 10.7232 16.2029 10.204 15.8633C9.98733 15.7215 9.92663 15.431 10.0683 15.2144C10.21 14.9978 10.5005 14.937 10.7172 15.0787C11.0443 15.2927 11.2431 15.3745 11.5336 15.4033V13.0225C11.177 12.8617 10.9138 12.7082 10.7003 12.5407C10.2755 12.2075 10.0818 11.6275 10.195 11.027C10.3187 10.3703 10.7751 9.84808 11.3861 9.664C11.436 9.64895 11.4851 9.6363 11.5336 9.62472V9.23828C11.5336 8.97939 11.7435 8.76953 12.0024 8.76953C12.2612 8.76953 12.4711 8.97939 12.4711 9.23828V9.59055C13.1065 9.70023 13.494 10.0492 13.5176 10.0709C13.6104 10.1566 13.6687 10.279 13.6687 10.4153C13.6687 10.6742 13.4588 10.8841 13.2 10.8841C13.0773 10.8841 12.9672 10.8381 12.8836 10.761C12.8727 10.7514 12.726 10.6266 12.4711 10.551V12.3936C12.5811 12.4348 12.6913 12.4746 12.7991 12.5127C13.7234 12.8394 14.2178 13.6617 14.0588 14.6077Z" fill="#FFCB0D"/>
<path d="M12.4863 13.3962C12.4809 13.3943 12.476 13.3925 12.4707 13.3906V15.3188C12.8516 15.1504 13.0768 14.7912 13.1338 14.4518C13.1646 14.2688 13.2088 13.6516 12.4863 13.3962Z" fill="#FFCB0D"/>
<path d="M11.116 11.2003C11.0686 11.4517 11.1325 11.6882 11.2786 11.8028C11.3528 11.861 11.4391 11.9174 11.5334 11.9721V10.6113C11.286 10.7387 11.1559 10.9889 11.116 11.2003Z" fill="#FFCB0D"/>
</g>
<defs>
<clipPath id="clip0_1020_8661">
<rect width="24" height="24" fill="white" transform="translate(0 0.988281)"/>
</clipPath>
</defs>
</svg>
