<svg width="24" height="24" viewBox="0 0 24 24" fill="none" xmlns="http://www.w3.org/2000/svg">
<g clip-path="url(#clip0_324_1227)">
<path d="M19.5 13.7471V17.0096C19.5 18.1946 18.8025 19.2521 17.7225 19.7471C16.41 20.3471 14.4225 20.9996 12 20.9996C9.5775 20.9996 7.59 20.3471 6.27 19.7471C5.1975 19.2521 4.5 18.1946 4.5 17.0096V13.7471L9.8325 16.1846C10.515 16.4996 11.25 16.6571 12 16.6571C12.75 16.6571 13.485 16.4996 14.1675 16.1846L19.5 13.7471Z" fill="#FFCB0D"/>
<path d="M22.5 12.375V17.25C22.5 17.6625 22.1625 18 21.75 18C21.3375 18 21 17.6625 21 17.25V13.065L22.5 12.375Z" fill="#FFCB0D"/>
<path d="M10.4535 14.8234C10.9447 15.0477 11.472 15.1602 12 15.1602C12.528 15.1602 13.0545 15.0484 13.5465 14.8234L23.1248 10.4449C23.6648 10.1982 24 9.67541 24 9.08066C24 8.48591 23.6648 7.96241 23.1248 7.71566L13.5465 3.33791C12.5633 2.88866 11.4375 2.88866 10.4543 3.33791L0.87525 7.71491C0.33525 7.96241 0 8.48516 0 9.07991C0 9.67466 0.33525 10.1974 0.87525 10.4449L10.4535 14.8234Z" fill="#FFCB0D"/>
</g>
<defs>
<clipPath id="clip0_324_1227">
<rect width="24" height="24" fill="white"/>
</clipPath>
</defs>
</svg>
