<svg width="24" height="24" viewBox="0 0 24 24" fill="none" xmlns="http://www.w3.org/2000/svg">
<g clip-path="url(#clip0_1020_11774)">
<path d="M11.8433 8.81174C12.0691 8.90029 12.2906 8.68356 12.2157 8.45296C11.7021 6.87005 9.84223 6.27956 8.11331 7.68391C7.20388 8.42271 6.86214 8.57969 6.85352 8.58365C7.45306 9.18309 8.138 11.1946 9.63278 11.4171C11.2794 11.7156 12.7368 10.0956 11.5444 9.35426C10.7603 8.86677 9.83704 8.5836 8.8474 8.5836C9.8849 8.34974 10.9206 8.45002 11.8433 8.81174Z" fill="#FFCB0D"/>
<path d="M19.2991 7.6842C16.3146 5.26001 14.4113 9.08299 15.5944 8.70403C16.4347 8.43488 17.3533 8.37626 18.2747 8.58394C16.7135 8.58394 15.2744 9.2994 14.3149 10.4639C14.3937 8.63384 14.5129 7.48829 14.6511 6.63615C15.4486 6.60874 16.5115 5.96476 17.0951 4.8379C18.1014 3.03702 17.6348 1.19053 17.4846 0.0253906C16.6983 0.791068 13.2635 -0.106104 11.9019 2.22717C11.3004 3.25788 11.4753 4.51211 12.108 5.42994C12.3083 5.72051 12.7872 5.58109 12.8009 5.22847C12.8603 3.69455 13.6237 2.53562 15.0469 1.89373C14.4083 2.72119 13.989 3.64759 13.7723 4.60511C13.4356 6.09668 13.0839 7.07512 12.9548 11.8292C12.9417 12.3113 13.3322 12.7104 13.8145 12.7044C14.1637 12.7 14.4627 12.4784 14.597 12.1561C14.8012 11.6659 15.1336 11.1586 15.6745 10.6937C16.1884 11.2619 16.9706 11.5641 17.7798 11.4174C19.2682 11.1959 19.9629 9.18 20.559 8.58389C20.5503 8.58003 20.2085 8.42305 19.2991 7.6842Z" fill="#FFCB0D"/>
<path d="M23.6865 13.6074C22.7535 12.9744 21.738 13.4255 21.2717 13.6947L15.4196 17.9779L11.993 17.9787L11.1363 17.122H14.2832C15.2296 17.122 16.2896 16.5056 16.2896 15.4084C16.2896 14.2435 15.2296 13.6947 14.2832 13.6947H13.1039C12.2279 13.6947 11.2042 13.7728 10.4824 13.3864C9.79656 13.0374 9.00684 12.8389 8.16385 12.8389C6.7483 12.8389 5.48138 13.4032 4.61323 14.2931L0 18.8346L5.13985 23.9744L6.85314 21.4045H14.9493C15.8127 21.4045 16.6462 21.0877 17.2916 20.5143L23.745 14.7815C24.1038 14.4628 24.0836 13.8768 23.6865 13.6074Z" fill="#FFCB0D"/>
</g>
<defs>
<clipPath id="clip0_1020_11774">
<rect width="24" height="24" fill="white"/>
</clipPath>
</defs>
</svg>
